<svg width="301" height="44" viewBox="0 0 301 44" fill="none" xmlns="http://www.w3.org/2000/svg">
<path d="M24.9481 16.7366C22.9526 15.3036 21.3306 13.4115 20.2192 11.2198C19.1077 9.02812 18.5392 6.60115 18.5617 4.14355C18.5617 9.39304 16.4365 19.4638 13.344 28.3761H21.8161C23.0567 24.5154 24.1319 20.5109 24.9481 16.7366Z" fill="#FFA715"/>
<path d="M0.459749 38.1124C-0.035225 39.0567 -0.135045 40.159 0.182247 41.1768C0.499539 42.1947 1.20795 43.0448 2.15165 43.54C3.09534 44.0353 4.19701 44.1351 5.2143 43.8177C6.23159 43.5002 7.08117 42.7914 7.57615 41.8472C8.43558 40.2101 9.28063 38.3751 10.0933 36.407H2.51664C2.16318 36.4071 1.81669 36.5054 1.51575 36.6909C1.21482 36.8764 0.971242 37.1418 0.812153 37.4576C0.686294 37.6807 0.571224 37.8966 0.459749 38.1124Z" fill="#FFA715"/>
<path d="M57.5346 41.739C58.0466 42.653 58.8948 43.3312 59.8988 43.6291C60.9028 43.927 61.9833 43.8211 62.9105 43.334C63.8377 42.847 64.5384 42.0171 64.8635 41.0211C65.1885 40.025 65.1123 38.9413 64.651 38.0007C64.5827 37.8747 64.5144 37.7452 64.4496 37.6121C64.261 37.2484 63.9761 36.9436 63.626 36.731C63.2759 36.5184 62.8742 36.4062 62.4647 36.4067H55.0498C55.8517 38.3317 56.6788 40.1307 57.5346 41.739Z" fill="#4088CD"/>
<path d="M42.5469 0.0994034C43.6122 0.0994034 44.6338 0.522829 45.3871 1.27653C46.1404 2.03023 46.5636 3.05247 46.5636 4.11837C46.5877 6.56592 46.0269 8.98381 44.9279 11.1706C43.8289 13.3573 42.2235 15.2496 40.2455 16.6898C41.0653 20.4893 42.1513 24.501 43.4027 28.3653H51.8748C48.7607 19.4279 46.6211 9.29589 46.6211 4.02122C46.6216 3.13592 46.3299 2.27522 45.7914 1.57279C45.2528 0.87036 44.4976 0.365507 43.6428 0.136631C42.7881 -0.0922452 41.8818 -0.0323358 41.0646 0.307056C40.2474 0.646447 39.565 1.24633 39.1235 2.01354C39.4831 1.42835 39.9866 0.94514 40.5859 0.610039C41.1852 0.274938 41.8603 0.0991321 42.5469 0.0994034Z" fill="#4088CD"/>
<path d="M22.5785 0.113757C23.1072 0.111863 23.631 0.214419 24.12 0.415542C24.609 0.616666 25.0535 0.9124 25.428 1.28578C25.8025 1.65917 26.0997 2.10286 26.3024 2.5914C26.5052 3.07994 26.6095 3.60373 26.6095 4.13272C26.6095 7.51124 25.9946 11.9548 24.9626 16.7257C27.2002 18.3116 29.8766 19.1595 32.6187 19.1511C35.3608 19.1427 38.0319 18.2785 40.2598 16.6789C39.1954 11.8756 38.5841 7.4141 38.5841 4.02118C38.5838 3.31607 38.7698 2.62342 39.1235 2.0135C38.7327 2.64591 38.526 3.37483 38.5265 4.11833C38.5265 7.97898 35.8512 11.12 32.5608 11.12C29.2705 11.12 26.6095 7.97898 26.6095 4.11833C26.6095 3.05243 26.1864 2.0302 25.4331 1.27649C24.6798 0.522791 23.6581 0.0993652 22.5929 0.0993652C21.5276 0.0993652 20.5059 0.522791 19.7526 1.27649C18.9994 2.0302 18.5762 3.05243 18.5762 4.11833C18.579 3.05713 19.0016 2.0402 19.7516 1.28982C20.5015 0.53943 21.5179 0.116606 22.5785 0.113757Z" fill="#FFB2CD"/>
<path d="M24.9483 16.7367C25.9804 11.9549 26.6097 7.51138 26.6097 4.13286C26.6097 3.06696 26.1865 2.04472 25.4332 1.29102C24.6799 0.537317 23.6583 0.113892 22.593 0.113892C21.5277 0.113892 20.506 0.537317 19.7527 1.29102C18.9995 2.04472 18.5763 3.06696 18.5763 4.13286C18.5504 6.59101 19.1158 9.01933 20.2248 11.2129C21.3338 13.4065 22.9539 15.3011 24.9483 16.7367Z" fill="#FF7300"/>
<path d="M40.2453 16.6898C42.2233 15.2496 43.8287 13.3573 44.9278 11.1706C46.0268 8.9838 46.5876 6.56591 46.5634 4.11835C46.564 3.24266 46.2787 2.39075 45.7509 1.69219C45.2231 0.993638 44.4818 0.486676 43.6396 0.248418C42.7974 0.0101604 41.9005 0.0536467 41.0853 0.372262C40.2701 0.690878 39.5812 1.26719 39.1234 2.01352C38.7698 2.62344 38.5837 3.31609 38.584 4.02121C38.584 7.41412 39.1953 11.8756 40.2453 16.6898Z" fill="#F766AA"/>
<path d="M7.02945 28.3654C5.98449 28.3966 4.99281 28.834 4.26472 29.5846C3.53662 30.3352 3.12939 31.3401 3.12939 32.3861C3.12939 33.4321 3.53662 34.437 4.26472 35.1876C4.99281 35.9383 5.98449 36.3756 7.02945 36.4069H10.0968C11.3206 33.7871 12.401 31.1026 13.3332 28.3654H7.02945Z" fill="#C1EAE8"/>
<path d="M58.0922 28.3654H51.8748C52.8138 31.1037 53.9026 33.7883 55.1363 36.407H58.0922C58.63 36.4231 59.1656 36.331 59.6672 36.1362C60.1688 35.9413 60.6262 35.6478 61.0123 35.2728C61.3984 34.8979 61.7054 34.4492 61.915 33.9533C62.1247 33.4575 62.2327 32.9246 62.2327 32.3862C62.2327 31.8478 62.1247 31.3149 61.915 30.8191C61.7054 30.3233 61.3984 29.8746 61.0123 29.4996C60.6262 29.1247 60.1688 28.8311 59.6672 28.6363C59.1656 28.4414 58.63 28.3493 58.0922 28.3654Z" fill="#C1EAE8"/>
<path d="M21.8161 28.3654C20.9099 31.1682 19.921 33.8955 18.8782 36.4069H46.3477C45.3013 33.8883 44.3088 31.1718 43.4026 28.3654H21.8161Z" fill="#C1EAE8"/>
<path d="M13.344 28.3654C12.4118 31.1026 11.3315 33.7871 10.1077 36.4069H18.8782C19.921 33.8883 20.9099 31.1682 21.8161 28.3654H13.344Z" fill="#3CCEC9"/>
<path d="M43.4026 28.3654C44.3088 31.1718 45.3013 33.8991 46.3477 36.4069H55.1362C53.9025 33.7882 52.8137 31.1036 51.8747 28.3654H43.4026Z" fill="#0053A7"/>
<path d="M103.059 19.3436V26.4126C103.059 26.5801 102.992 26.7408 102.874 26.8592C102.755 26.9777 102.595 27.0443 102.427 27.0443H98.1382C97.9708 27.0443 97.8102 26.9777 97.6918 26.8592C97.5734 26.7408 97.5069 26.5801 97.5069 26.4126V24.9571C97.5069 24.5728 97.3543 24.2043 97.0827 23.9326C96.8111 23.6608 96.4428 23.5082 96.0587 23.5082H83.7155C83.5253 23.5082 83.337 23.5456 83.1613 23.6185C82.9856 23.6913 82.826 23.798 82.6915 23.9326C82.557 24.0671 82.4504 24.2268 82.3776 24.4026C82.3048 24.5784 82.2674 24.7668 82.2674 24.9571V26.4126C82.2674 26.5801 82.2008 26.7408 82.0824 26.8592C81.964 26.9777 81.8035 27.0443 81.636 27.0443H77.3144C77.147 27.0443 76.9864 26.9777 76.868 26.8592C76.7496 26.7408 76.6831 26.5801 76.6831 26.4126V19.3436C76.6831 19.1761 76.7496 19.0154 76.868 18.897C76.9864 18.7785 77.147 18.712 77.3144 18.712C78.3471 18.6881 79.063 18.1248 79.4622 17.0221C79.8614 15.9193 80.1011 14.3673 80.1814 12.3659L80.2627 10.1518C80.303 9.14561 80.7299 8.19386 81.4544 7.49501C82.179 6.79615 83.1452 6.40415 84.1515 6.40076H96.7942C97.8299 6.40076 98.8232 6.81242 99.5555 7.54517C100.288 8.27793 100.699 9.27177 100.699 10.308V18.712H102.434C102.6 18.7137 102.759 18.781 102.876 18.8993C102.993 19.0175 103.059 19.1772 103.059 19.3436ZM85.2352 16.5011C85.1187 17.3084 84.7921 18.0708 84.2882 18.712H94.7017V11.1676H85.6452L85.5801 12.7957C85.547 14.0371 85.4318 15.2749 85.2352 16.5011Z" fill="#303030"/>
<path d="M122.87 16.4684H110.446C110.664 17.3054 111.186 18.0309 111.91 18.5035C112.731 19.002 113.68 19.2488 114.64 19.2133C115.365 19.2305 116.087 19.1123 116.768 18.8649C117.159 18.7129 117.531 18.5151 117.875 18.2755C118.085 18.134 118.339 18.0714 118.591 18.0988C118.842 18.1262 119.077 18.2419 119.251 18.4253L120.989 20.2324C121.092 20.34 121.172 20.4677 121.224 20.6075C121.275 20.7474 121.298 20.8963 121.289 21.0451C121.28 21.1939 121.241 21.3394 121.174 21.4724C121.107 21.6054 121.013 21.7231 120.898 21.8181C119.295 23.1336 117.146 23.7913 114.451 23.7913C112.63 23.8299 110.824 23.4407 109.18 22.6549C107.726 21.9609 106.503 20.8618 105.658 19.4895C104.813 18.1172 104.381 16.53 104.415 14.9185C104.385 13.3405 104.797 11.7856 105.606 10.4306C106.415 9.07562 107.588 7.97493 108.991 7.25372C110.458 6.52044 112.073 6.13194 113.713 6.11783C115.353 6.10372 116.975 6.46438 118.454 7.17232C119.822 7.85882 120.966 8.92179 121.751 10.2363C122.588 11.6765 123.008 13.3214 122.965 14.9869C122.965 15.0292 122.935 15.5241 122.87 16.4684ZM111.529 11.1675C111.334 11.3321 111.16 11.519 111.009 11.7243C110.899 11.8724 110.833 12.048 110.817 12.2315C110.801 12.415 110.836 12.5993 110.919 12.764C111.002 12.9286 111.128 13.0671 111.285 13.1641C111.441 13.261 111.622 13.3127 111.806 13.3133H115.89C116.074 13.3133 116.255 13.2621 116.412 13.1653C116.569 13.0686 116.696 12.9302 116.779 12.7654C116.862 12.6007 116.898 12.4161 116.882 12.2323C116.866 12.0485 116.8 11.8726 116.69 11.7243C116.538 11.5188 116.362 11.3319 116.166 11.1675C115.502 10.6545 114.687 10.3762 113.848 10.3762C113.009 10.3762 112.193 10.6545 111.529 11.1675Z" fill="#303030"/>
<path d="M150.733 7.73234V22.1763C150.733 22.5295 150.593 22.8682 150.343 23.1179C150.094 23.3677 149.755 23.508 149.402 23.508H146.073C145.72 23.508 145.381 23.3678 145.131 23.1181C144.881 22.8685 144.74 22.5298 144.739 22.1763V11.1675H133.157L133.03 13.7723C132.997 15.6345 132.779 17.4887 132.379 19.3077C132.118 20.5815 131.506 21.7568 130.612 22.7005C129.792 23.5102 128.667 23.9161 127.238 23.9183C126.483 23.8995 125.733 23.809 124.995 23.648C124.812 23.6109 124.649 23.5093 124.534 23.3618C124.419 23.2142 124.361 23.0304 124.371 22.8438L124.546 19.4314C124.557 19.2278 124.645 19.0361 124.793 18.8956C124.941 18.7551 125.137 18.6765 125.34 18.676C125.62 18.6953 125.9 18.6481 126.158 18.5383C126.416 18.4285 126.644 18.2592 126.824 18.0443C127.193 17.549 127.431 16.9691 127.517 16.3577C127.666 15.4224 127.751 14.4782 127.771 13.5314L127.98 7.67047C127.987 7.32238 128.131 6.99113 128.38 6.74768C128.628 6.50424 128.963 6.36796 129.31 6.36804H149.412C149.589 6.36929 149.763 6.40574 149.926 6.47527C150.088 6.5448 150.235 6.64602 150.358 6.77302C150.481 6.90002 150.578 7.05026 150.642 7.21496C150.706 7.37967 150.737 7.55555 150.733 7.73234Z" fill="#303030"/>
<path d="M158.244 22.655C156.808 21.9432 155.604 20.8382 154.772 19.4687C153.94 18.0991 153.513 16.5212 153.541 14.9186C153.516 13.3254 153.943 11.7577 154.772 10.3975C155.602 9.03737 156.8 7.94049 158.227 7.23423C159.783 6.49672 161.482 6.11414 163.203 6.11414C164.924 6.11414 166.624 6.49672 168.179 7.23423C169.6 7.92989 170.796 9.01496 171.625 10.3633C172.456 11.7368 172.882 13.3168 172.855 14.9218C172.881 16.5329 172.455 18.119 171.625 19.4999C170.795 20.8543 169.601 21.9477 168.179 22.655C166.63 23.4029 164.932 23.7913 163.211 23.7913C161.491 23.7913 159.793 23.4029 158.244 22.655ZM165.784 17.9337C166.454 17.2087 166.79 16.2036 166.793 14.9186C166.795 13.6335 166.458 12.6447 165.784 11.9523C165.444 11.6118 165.041 11.3417 164.597 11.1575C164.153 10.9732 163.677 10.8783 163.197 10.8783C162.716 10.8783 162.24 10.9732 161.796 11.1575C161.352 11.3417 160.949 11.6118 160.61 11.9523C159.926 12.6708 159.584 13.6606 159.584 14.9218C159.584 16.183 159.922 17.188 160.597 17.9369C160.933 18.2821 161.336 18.5564 161.78 18.7437C162.224 18.931 162.702 19.0275 163.184 19.0275C163.666 19.0275 164.143 18.931 164.587 18.7437C165.032 18.5564 165.434 18.2821 165.771 17.9369L165.784 17.9337Z" fill="#303030"/>
<path d="M201.841 23.0619V14.7198L197.643 21.8832C197.586 21.9816 197.504 22.0635 197.406 22.1206C197.308 22.1777 197.197 22.2081 197.083 22.2088H195.28C195.165 22.2093 195.053 22.1794 194.953 22.1222C194.854 22.065 194.771 21.9826 194.714 21.8832L190.64 14.5929V23.0586C190.64 23.2314 190.571 23.397 190.449 23.5191C190.327 23.6413 190.161 23.7099 189.989 23.7099H185.898C185.726 23.7099 185.56 23.6413 185.438 23.5191C185.316 23.397 185.247 23.2314 185.247 23.0586V7.75511C185.247 7.45372 185.367 7.16468 185.58 6.95157C185.793 6.73846 186.082 6.61874 186.383 6.61874H190.877C191.083 6.61878 191.285 6.67485 191.462 6.78096C191.638 6.88706 191.783 7.03921 191.879 7.22111L195.553 14.111C195.63 14.2543 195.743 14.3746 195.882 14.4595C196.02 14.5445 196.179 14.591 196.341 14.5943C196.504 14.5976 196.664 14.5576 196.806 14.4784C196.948 14.3992 197.066 14.2836 197.148 14.1435L201.239 7.16576C201.339 6.99624 201.482 6.85562 201.653 6.75751C201.824 6.6594 202.018 6.60711 202.215 6.60571H206.081C206.381 6.60657 206.669 6.72612 206.882 6.93834C207.095 7.15056 207.215 7.43827 207.217 7.73883L207.243 23.0619C207.243 23.2346 207.174 23.4003 207.052 23.5224C206.93 23.6445 206.764 23.7131 206.592 23.7131H202.491C202.319 23.7131 202.153 23.6445 202.031 23.5224C201.909 23.4003 201.841 23.2346 201.841 23.0619Z" fill="#303030"/>
<path d="M228.499 16.6769H216.068C216.289 17.5135 216.812 18.2386 217.536 18.7119C218.356 19.2103 219.304 19.4571 220.263 19.4217C220.988 19.4384 221.709 19.3202 222.391 19.0733C222.819 18.9077 223.225 18.6889 223.598 18.4221C223.77 18.2966 223.982 18.2374 224.194 18.2554C224.406 18.2733 224.605 18.3672 224.754 18.5198L226.761 20.6069C226.843 20.6904 226.907 20.7894 226.949 20.8981C226.992 21.0069 227.012 21.123 227.009 21.2397C227.005 21.3564 226.979 21.4712 226.93 21.5773C226.881 21.6834 226.812 21.7786 226.726 21.8573C225.101 23.2943 222.882 24.0117 220.071 24.0095C218.25 24.0473 216.446 23.6581 214.802 22.8732C213.348 22.1791 212.125 21.08 211.28 19.7077C210.435 18.3354 210.004 16.7483 210.038 15.1367C210.016 13.5428 210.438 11.9742 211.258 10.6075C212.066 9.27063 213.229 8.18408 214.617 7.46869C216.084 6.7354 217.699 6.3469 219.339 6.3328C220.979 6.31869 222.6 6.67935 224.08 7.38729C225.449 8.07358 226.594 9.13653 227.38 10.4512C228.216 11.892 228.636 13.5365 228.594 15.2019C228.594 15.2344 228.574 15.7293 228.499 16.6769ZM217.155 11.3727C216.521 11.9268 216.103 12.6865 215.974 13.5185H222.977C222.847 12.6865 222.429 11.9268 221.796 11.3727C221.131 10.86 220.315 10.5819 219.475 10.5819C218.636 10.5819 217.82 10.86 217.155 11.3727Z" fill="#303030"/>
<path d="M248.122 7.53369V22.7851C248.122 23.0313 248.024 23.2673 247.85 23.4413C247.676 23.6153 247.441 23.7131 247.195 23.7131H243.088C242.966 23.7135 242.845 23.6899 242.732 23.6434C242.619 23.597 242.516 23.5287 242.43 23.4425C242.343 23.3563 242.275 23.2538 242.228 23.141C242.181 23.0282 242.157 22.9073 242.157 22.7851V17.621C240.807 18.2946 239.314 18.6298 237.806 18.5978C235.409 18.5978 233.61 18.0606 232.411 16.9861C231.211 15.9116 230.611 14.2195 230.611 11.9099V7.53369C230.612 7.28784 230.71 7.0523 230.884 6.87846C231.057 6.70462 231.293 6.60657 231.539 6.60571H235.678C235.924 6.60657 236.159 6.70462 236.333 6.87846C236.507 7.0523 236.604 7.28784 236.605 7.53369V11.4996C236.605 12.4439 236.82 13.1276 237.256 13.5346C237.692 13.9416 238.333 14.15 239.209 14.15C240.239 14.1651 241.257 13.9269 242.173 13.4565V7.53369C242.174 7.28728 242.273 7.05125 242.447 6.87731C242.622 6.70338 242.858 6.60571 243.104 6.60571H247.211C247.454 6.61081 247.685 6.71072 247.855 6.88411C248.026 7.0575 248.121 7.29063 248.122 7.53369Z" fill="#303030"/>
<path d="M273.456 11.3726H266.801C266.639 11.3726 266.479 11.4045 266.33 11.4666C266.18 11.5287 266.045 11.6196 265.93 11.7342C265.816 11.8489 265.726 11.9849 265.664 12.1346C265.602 12.2844 265.571 12.4447 265.571 12.6067V22.4823C265.57 22.809 265.44 23.1221 265.209 23.3528C264.978 23.5835 264.664 23.7131 264.338 23.7131H260.84C260.513 23.7131 260.2 23.5835 259.969 23.3528C259.737 23.1221 259.607 22.809 259.606 22.4823V12.6067C259.607 12.4445 259.575 12.2838 259.513 12.1339C259.451 11.984 259.361 11.8478 259.246 11.7331C259.131 11.6184 258.995 11.5275 258.845 11.4657C258.695 11.4038 258.535 11.3722 258.373 11.3726H251.679C251.352 11.3726 251.038 11.2426 250.807 11.0112C250.575 10.7797 250.446 10.4658 250.446 10.1386V7.83976C250.446 7.51247 250.575 7.19859 250.807 6.96716C251.038 6.73573 251.352 6.60571 251.679 6.60571H273.446C273.774 6.60571 274.087 6.73573 274.319 6.96716C274.55 7.19859 274.68 7.51247 274.68 7.83976V10.1386C274.68 10.4642 274.551 10.7766 274.322 11.0077C274.093 11.2389 273.782 11.37 273.456 11.3726Z" fill="#303030"/>
<path d="M291.885 13.4239C293.022 14.4138 293.589 15.8247 293.587 17.6568C293.587 19.5714 292.93 21.0659 291.615 22.1404C290.3 23.2149 288.444 23.7403 286.047 23.7164H278.009C277.75 23.7164 277.502 23.6135 277.319 23.4303C277.136 23.2471 277.033 22.9986 277.033 22.7396V7.5923C277.033 7.33323 277.136 7.08478 277.319 6.90159C277.502 6.7184 277.75 6.61548 278.009 6.61548H282.002C282.261 6.61548 282.509 6.7184 282.692 6.90159C282.875 7.08478 282.978 7.33323 282.978 7.5923V11.9099H286.795C289.052 11.9294 290.748 12.4341 291.885 13.4239ZM287.72 17.5591C287.743 17.2847 287.704 17.0084 287.605 16.7512C287.507 16.494 287.351 16.2626 287.15 16.0744C286.655 15.7216 286.056 15.544 285.448 15.5697H283.971C283.712 15.5697 283.463 15.6726 283.28 15.8558C283.097 16.039 282.994 16.2874 282.994 16.5465V18.5978C282.994 18.8569 283.097 19.1054 283.28 19.2885C283.463 19.4717 283.712 19.5746 283.971 19.5746L285.458 19.5942C286.964 19.605 287.717 18.9267 287.72 17.5591ZM298.019 6.60571C298.81 6.60571 299.568 6.91995 300.127 7.47929C300.686 8.03862 301 8.79725 301 9.58827V20.7306C301 21.5216 300.686 22.2802 300.127 22.8395C299.568 23.3989 298.81 23.7131 298.019 23.7131C297.229 23.7131 296.47 23.3989 295.911 22.8395C295.352 22.2802 295.038 21.5216 295.038 20.7306V9.58827C295.038 8.79725 295.352 8.03862 295.911 7.47929C296.47 6.91995 297.229 6.60571 298.019 6.60571Z" fill="#303030"/>
<path d="M282.728 32.5796V39.3051H280.856V37.6141H279.82L278.716 39.3051H276.72L278.083 37.3355C277.635 37.1369 277.293 36.8519 277.056 36.4804C276.819 36.1025 276.701 35.6541 276.701 35.1353C276.701 34.6101 276.822 34.1553 277.066 33.771C277.309 33.3867 277.657 33.092 278.112 32.887C278.566 32.6821 279.097 32.5796 279.705 32.5796H282.728ZM279.743 34.0784C278.995 34.0784 278.62 34.4211 278.62 35.1065C278.62 35.446 278.713 35.7054 278.899 35.8847C279.091 36.0577 279.366 36.1441 279.724 36.1441H280.856V34.0784H279.743Z" fill="#0B3E84"/>
<path d="M268.847 32.5796H270.719V36.5284L273.492 32.5796H275.277V39.3051H273.406V35.3659L270.642 39.3051H268.847V32.5796Z" fill="#0B3E84"/>
<path d="M267.555 37.7967V40.6599H265.818V39.3051H261.518V40.6599H259.771V37.7967H260.011C260.408 37.7903 260.686 37.5181 260.846 36.98C261.013 36.442 261.115 35.6669 261.153 34.6549L261.23 32.5796H266.643V37.7967H267.555ZM262.814 34.8182C262.788 35.5356 262.731 36.1441 262.641 36.6437C262.551 37.1434 262.414 37.5277 262.228 37.7967H264.772V34.088H262.843L262.814 34.8182Z" fill="#0B3E84"/>
<path d="M259.476 32.5796L256.693 37.7775C256.398 38.3347 256.037 38.7575 255.608 39.0457C255.186 39.334 254.722 39.4781 254.216 39.4781C253.845 39.4781 253.449 39.3948 253.026 39.2283L253.477 37.8255C253.74 37.9024 253.964 37.9408 254.149 37.9408C254.335 37.9408 254.498 37.8992 254.639 37.8159C254.786 37.7326 254.92 37.6013 255.042 37.422L252.431 32.5796H254.437L256.002 35.8271L257.623 32.5796H259.476Z" fill="#0B3E84"/>
<path d="M252.124 34.088H250.071V39.3051H248.199V34.088H246.136V32.5796H252.124V34.088Z" fill="#0B3E84"/>
<path d="M242.637 39.4396C241.933 39.4396 241.3 39.2923 240.737 38.9977C240.18 38.6966 239.742 38.2803 239.422 37.7486C239.102 37.217 238.942 36.6149 238.942 35.9424C238.942 35.2698 239.102 34.6677 239.422 34.1361C239.742 33.6044 240.18 33.1913 240.737 32.8966C241.3 32.5956 241.933 32.4451 242.637 32.4451C243.251 32.4451 243.804 32.554 244.297 32.7717C244.79 32.9895 245.199 33.3034 245.526 33.7133L244.316 34.8086C243.881 34.2834 243.353 34.0208 242.733 34.0208C242.368 34.0208 242.042 34.1008 241.754 34.261C241.472 34.4211 241.252 34.6485 241.092 34.9431C240.938 35.2314 240.861 35.5644 240.861 35.9424C240.861 36.3203 240.938 36.6565 241.092 36.9512C241.252 37.2394 241.472 37.4636 241.754 37.6237C242.042 37.7839 242.368 37.8639 242.733 37.8639C243.353 37.8639 243.881 37.6013 244.316 37.0761L245.526 38.1714C245.199 38.5813 244.79 38.8952 244.297 39.113C243.804 39.3307 243.251 39.4396 242.637 39.4396Z" fill="#0B3E84"/>
<path d="M234.361 32.5796V39.3051H232.489V37.6141H231.453L230.349 39.3051H228.353L229.716 37.3355C229.268 37.1369 228.926 36.8519 228.689 36.4804C228.452 36.1025 228.334 35.6541 228.334 35.1353C228.334 34.6101 228.455 34.1553 228.698 33.771C228.942 33.3867 229.29 33.092 229.745 32.887C230.199 32.6821 230.73 32.5796 231.338 32.5796H234.361ZM231.376 34.0784C230.627 34.0784 230.253 34.4211 230.253 35.1065C230.253 35.446 230.346 35.7054 230.531 35.8847C230.723 36.0577 230.999 36.1441 231.357 36.1441H232.489V34.0784H231.376Z" fill="#0B3E84"/>
<path d="M225.444 37.9985H222.603L222.075 39.3051H220.136L223.102 32.5796H224.973L227.949 39.3051H225.972L225.444 37.9985ZM224.887 36.5957L224.023 34.4435L223.16 36.5957H224.887Z" fill="#0B3E84"/>
<path d="M218.981 32.5796V39.3051H217.081V36.6822H214.49V39.3051H212.589V32.5796H214.49V35.1065H217.081V32.5796H218.981Z" fill="#0B3E84"/>
<path d="M208.668 34.7222C209.493 34.7222 210.13 34.9079 210.578 35.2794C211.026 35.6445 211.25 36.189 211.25 36.9128C211.25 37.6878 211 38.2803 210.501 38.6902C210.002 39.1002 209.308 39.3051 208.419 39.3051H205.242V32.5796H207.113V34.7222H208.668ZM208.294 37.9408C208.614 37.9408 208.866 37.8543 209.052 37.6814C209.244 37.5085 209.34 37.2651 209.34 36.9512C209.34 36.3683 208.991 36.0769 208.294 36.0769H207.113V37.9408H208.294Z" fill="#0B3E84"/>
<path d="M203.421 32.5796V39.3051H201.55V34.088H199.62L199.582 35.1833C199.55 36.1441 199.47 36.9256 199.342 37.5277C199.221 38.1298 199.009 38.5974 198.709 38.9304C198.408 39.2571 197.983 39.4204 197.432 39.4204C197.176 39.4204 196.889 39.382 196.569 39.3051L196.674 37.7487C196.757 37.7679 196.844 37.7775 196.933 37.7775C197.183 37.7775 197.375 37.6782 197.509 37.4796C197.643 37.2811 197.739 37.0056 197.797 36.6534C197.855 36.2947 197.893 35.8303 197.912 35.2602L198.008 32.5796H203.421Z" fill="#0B3E84"/>
<path d="M193.42 37.9985H190.58L190.052 39.3051H188.113L191.079 32.5796H192.95L195.925 39.3051H193.948L193.42 37.9985ZM192.864 36.5957L192 34.4435L191.136 36.5957H192.864Z" fill="#0B3E84"/>
<path d="M184.893 32.5796C185.501 32.5796 186.029 32.6821 186.477 32.887C186.924 33.0856 187.27 33.3738 187.513 33.7518C187.756 34.1233 187.878 34.562 187.878 35.068C187.878 35.5741 187.756 36.0128 187.513 36.3843C187.27 36.7558 186.924 37.0441 186.477 37.249C186.029 37.4476 185.501 37.5469 184.893 37.5469H183.722V39.3051H181.822V32.5796H184.893ZM184.778 36.0481C185.168 36.0481 185.463 35.9648 185.661 35.7982C185.859 35.6253 185.958 35.3819 185.958 35.068C185.958 34.7542 185.859 34.5108 185.661 34.3378C185.463 34.1649 185.168 34.0784 184.778 34.0784H183.722V36.0481H184.778Z" fill="#0B3E84"/>
<path d="M180.562 34.088H178.508V39.3051H176.637V34.088H174.573V32.5796H180.562V34.088Z" fill="#0B3E84"/>
<path d="M171.828 37.9985H168.987L168.46 39.3051H166.521L169.487 32.5796H171.358L174.333 39.3051H172.356L171.828 37.9985ZM171.272 36.5957L170.408 34.4435L169.544 36.5957H171.272Z" fill="#0B3E84"/>
<path d="M165.726 37.8351V39.3051H160.333V32.5796H165.601V34.0496H162.214V35.1833H165.198V36.6053H162.214V37.8351H165.726Z" fill="#0B3E84"/>
<path d="M159.073 34.088H157.019V39.3051H155.148V34.088H153.084V32.5796H159.073V34.088Z" fill="#0B3E84"/>
<path d="M148.657 32.5796V39.3051H146.785V37.6141H145.749L144.645 39.3051H142.649L144.012 37.3355C143.564 37.1369 143.221 36.8519 142.985 36.4804C142.748 36.1025 142.63 35.6541 142.63 35.1353C142.63 34.6101 142.751 34.1553 142.994 33.771C143.237 33.3867 143.586 33.092 144.04 32.887C144.495 32.6821 145.026 32.5796 145.634 32.5796H148.657ZM145.672 34.0784C144.923 34.0784 144.549 34.4211 144.549 35.1065C144.549 35.446 144.642 35.7054 144.827 35.8847C145.019 36.0577 145.294 36.1441 145.653 36.1441H146.785V34.0784H145.672Z" fill="#0B3E84"/>
<path d="M139.74 37.9985H136.899L136.371 39.3051H134.432L137.398 32.5796H139.269L142.244 39.3051H140.267L139.74 37.9985ZM139.183 36.5957L138.319 34.4435L137.455 36.5957H139.183Z" fill="#0B3E84"/>
<path d="M130.604 36.7302H129.74V39.3051H127.85V32.5796H129.74V35.1929H130.652L132.255 32.5796H134.251L132.149 35.8271L134.27 39.3051H132.13L130.604 36.7302Z" fill="#0B3E84"/>
<path d="M123.757 39.4396C123.053 39.4396 122.42 39.2923 121.857 38.9977C121.3 38.6966 120.862 38.2803 120.542 37.7486C120.222 37.217 120.062 36.6149 120.062 35.9424C120.062 35.2698 120.222 34.6677 120.542 34.1361C120.862 33.6044 121.3 33.1913 121.857 32.8966C122.42 32.5956 123.053 32.4451 123.757 32.4451C124.371 32.4451 124.925 32.554 125.417 32.7717C125.91 32.9895 126.319 33.3034 126.646 33.7133L125.436 34.8086C125.001 34.2834 124.473 34.0208 123.853 34.0208C123.488 34.0208 123.162 34.1008 122.874 34.261C122.592 34.4211 122.372 34.6485 122.212 34.9431C122.058 35.2314 121.981 35.5644 121.981 35.9424C121.981 36.3203 122.058 36.6565 122.212 36.9512C122.372 37.2394 122.592 37.4636 122.874 37.6237C123.162 37.7839 123.488 37.8639 123.853 37.8639C124.473 37.8639 125.001 37.6013 125.436 37.0761L126.646 38.1714C126.319 38.5813 125.91 38.8952 125.417 39.113C124.925 39.3307 124.371 39.4396 123.757 39.4396Z" fill="#0B3E84"/>
<path d="M119.318 34.088H117.264V39.3051H115.393V34.088H113.33V32.5796H119.318V34.088Z" fill="#0B3E84"/>
<path d="M112.439 37.8351V39.3051H107.045V32.5796H112.314V34.0496H108.926V35.1833H111.911V36.6053H108.926V37.8351H112.439Z" fill="#0B3E84"/>
<path d="M105.753 37.7967V40.6599H104.016V39.3051H99.7164V40.6599H97.9697V37.7967H98.2097C98.6063 37.7903 98.8847 37.5181 99.0446 36.98C99.211 36.442 99.3133 35.6669 99.3517 34.6549L99.4285 32.5796H104.841V37.7967H105.753ZM101.012 34.8182C100.986 35.5356 100.929 36.1441 100.839 36.6437C100.75 37.1434 100.612 37.5277 100.427 37.7967H102.97V34.088H101.041L101.012 34.8182Z" fill="#0B3E84"/>
</svg>
